<?xml version="1.0" encoding="UTF-8" standalone="no"?><!DOCTYPE svg PUBLIC "-//W3C//DTD SVG 1.1//EN" "http://www.w3.org/Graphics/SVG/1.1/DTD/svg11.dtd"><svg width="100%" height="100%" viewBox="0 0 5461 6250" version="1.1" xmlns="http://www.w3.org/2000/svg" xmlns:xlink="http://www.w3.org/1999/xlink" xml:space="preserve" xmlns:serif="http://www.serif.com/" style="fill-rule:evenodd;clip-rule:evenodd;stroke-linejoin:round;stroke-miterlimit:2;"><g><path id="Calque_1-2" d="M5460.25,3665.1l-0,-221.85l-192.127,-110.869l-192.127,110.869l-0,89.056l-621.587,54.361l-0,-109.513l-192.127,-110.868l-192.127,110.868l0,56.508l-894.407,-319.269l-54.134,-222.416l976.456,-600.001l0,60.464l318.14,183.651l-108.722,754.38l183.199,-779.809l227.84,-131.55l295.31,137.314l-248.635,-227.388l0,-322.095l-71.2,-41.025l376.343,-231.23l0,73.46l115.276,66.567l76.851,1393.48l76.851,-1393.48l115.276,-66.567l-0,-221.85l-192.127,-110.868l-148.051,85.44l-253.155,-156.301l-0,-191.223l-192.127,-110.868l-153.702,88.717l-1597.7,-985.837l0,-153.701l-1.13,-0.678l-0,-1.357l-189.867,-109.625l-189.979,109.625l-0,219.251l1.243,0.678l-0,1.469l31.305,18.083l-612.545,342.325l-0,-41.703l-192.127,-110.869l-192.127,110.869l-0,221.85l30.401,17.517l-1283.97,717.425l-126.804,-73.122l-192.127,110.869l0,221.85l119.345,68.94l62.61,1300.36l-180.825,104.088l0,221.85l180.825,104.314l-16.048,720.249l-164.325,95.047l0,221.85l192.127,110.981l192.127,-110.981l-0,-86.57l487.889,-21.586l-159.126,351.818l-340.065,-177.209l2090.79,1164.06l-0,166.585l259.936,150.085l3.843,-2.26l259.936,-150.198l-0,-122.848l2058.24,-1188.93l130.42,75.269l192.127,-110.982l-0,-221.85l-138.783,-80.128l67.131,-689.396l162.065,-93.577Zm-2165.84,374.195l-504.277,-221.398l13.788,-412.621l260.841,-150.424l-0,-227.727l12.657,-7.798l216.991,1019.97Zm-1416.77,-1474.97l-0,-297.571l425.617,-410.36l92.673,53.569l185.459,-107.139l-0,-58.994l222.076,-11.302l139.801,656.848l-206.706,289.095l210.887,-269.769l91.769,431.381l-13.788,7.12l-293.841,-169.524l-333.397,192.127l0,17.405l-551.743,-305.143l31.193,-17.743Zm2695.65,-1013.41l-54.022,374.082l-87.474,-50.518l-333.397,192.127l0,14.353l-502.92,-290.112l-0,-144.547l-35.487,-20.682l457.488,-585.196l459.522,247.957l0,206.819l96.29,55.717Zm-1767.68,141.044l-83.857,-344.925l520.889,281.184l-31.418,18.082l0,221.85l74.025,42.833l-318.139,444.83l-151.78,-624.073l381.541,-19.665l-391.261,-20.116Zm704.202,-95.047l-106.461,-61.48l-125.9,72.443l-878.132,-506.763l1188.36,-292.033l350.349,188.85l-428.217,598.983Zm-788.398,-249.991l73.347,344.473l-213.374,-11.302l-0,-91.769l-185.459,-106.8l-85.101,49.049l-333.057,-325.825l330.232,-81.145l413.412,223.319Zm-323.452,1628.78l0,133.472l-323.451,394.312l-225.127,-98.776l-165.456,-728.5l108.044,-62.384l605.99,361.876Zm-482.125,721.719l-57.186,-251.912l196.534,81.823l-139.348,170.089Zm-311.02,-975.665l70.748,-40.799l16.049,106.348l-207.045,457.601l-625.656,-274.403l499.756,-390.695l246.148,141.948Zm87.023,66.792l88.604,586.213l-282.54,-124.317l193.936,-461.896Zm94.707,626.899l56.508,371.257l-411.378,502.016l414.994,-478.283l80.694,534.452l-99.906,57.638l-0,120.135l-868.979,17.405l523.715,-1251.31l304.352,126.691Zm304.238,834.96l-43.511,25.09l-125.447,-551.969l160.369,-184.781l565.079,235.412l24.638,731.777l-317.575,6.329l0,-109.512l-263.553,-152.346Zm11.302,-734.602l296.101,-341.195l0,80.241l236.768,136.749l12.206,363.572l-545.075,-239.367Zm978.039,-696.856l-107.817,-442.231l348.201,-445.395l82.841,47.806l192.127,-110.982l-0,-49.614l502.92,271.238l0,204.446l-1018.27,524.732Zm1990.21,-1172.65l0,147.825l-411.151,211.678l-23.395,-13.561l99.567,-424.488l125.448,-72.33l243.436,131.211l-33.905,19.665Zm-2499.34,-1295.95l156.865,90.413l85.101,-49.162l663.177,357.469l-1113.55,330.91l-405.839,-234.169l-0,-128.16l614.241,-367.301Zm-806.368,632.888l135.619,-79.111l374.76,201.847l-305.143,90.412l-108.721,-106.348l93.012,110.982l-178.226,53.456l184.103,-45.206l296.101,353.174l-45.206,26.333l0,214.165l88.944,51.422l-491.619,355.096l-203.429,-117.649l-14.918,8.589l-259.936,-942.1l202.072,975.778l-200.038,114.938l0,49.161l-917.914,-506.989l917.914,548.24l0,224.902l22.603,13.109l-526.879,379.168l-607.347,-266.83l36.165,-750.199l127.708,-73.46l-0,-207.497l1252.78,-749.747l127.595,74.364Zm-1428.97,2327.34l-140.253,-81.032l0,-13.788l21.812,-453.759l557.959,232.926l-439.518,315.653Zm50.179,1241.14l-0,-70.748l-164.777,-95.047l-16.048,-720.249l180.825,-104.314l-0,-220.833l424.148,-331.588l657.526,273.724l-569.712,1258.77l-511.962,10.285Zm550.5,40.233l890.677,-39.329l0,154.605l169.524,97.872l132.794,878.811l-1354.61,-706.123l161.613,-385.836Zm1463.1,1232.89l-229.536,-1010.36l184.894,-106.8l0,-178.452l317.914,-14.014l38.425,1142.25l-245.696,141.835l-0,59.785l-66.001,-34.243Zm329.893,-177.661l-0.678,-0l38.199,-1136.49l297.458,-12.658l-297.232,5.99l22.603,-670.749l505.859,210.662l311.132,1461.75l-617.179,309.437l0,-17.404l-260.162,-150.537Zm990.357,-198.23l-332.605,-1366.93l89.734,37.295l-90.412,-39.555l-209.306,-860.503l892.825,384.254l0,95.837l139.01,80.355l-223.772,1334.49l271.238,-1307.14l5.764,3.278l122.848,-71.2l659.221,755.284l-58.655,33.905l0,221.737l59.673,34.47l-1325.56,664.42Zm1457.9,-1031.61l-77.303,44.641l-709.513,-726.24l63.515,-36.73l-0,-110.981l621.587,-4.973l-0,82.05l157.657,91.09l-9.606,687.927l-46.337,-26.784Z" style="fill:url(#_Linear1);fill-rule:nonzero;"/></g><defs><linearGradient id="_Linear1" x1="0" y1="0" x2="1" y2="0" gradientUnits="userSpaceOnUse" gradientTransform="matrix(2230.14,-4835.72,4835.72,2230.14,1349.3,6093.13)"><stop offset="0" style="stop-color:#2f5697;stop-opacity:1"/><stop offset="0.03" style="stop-color:#325a96;stop-opacity:1"/><stop offset="1" style="stop-color:#a9f4d6;stop-opacity:1"/></linearGradient></defs></svg>